<svg xmlns="http://www.w3.org/2000/svg" version="1.1" xmlns:xlink="http://www.w3.org/1999/xlink" xmlns:svgjs="http://svgjs.dev/svgjs" width="1000" height="1000" viewBox="0 0 1000 1000"><rect width="1000" height="1000" fill="#000000"></rect><g transform="matrix(0.7,0,0,0.7,149.5759355568324,423.6279877961523)"><svg viewBox="0 0 396 86" data-background-color="#f44336" preserveAspectRatio="xMidYMid meet" height="217" width="1000" xmlns="http://www.w3.org/2000/svg" xmlns:xlink="http://www.w3.org/1999/xlink"><g id="tight-bounds" transform="matrix(1,0,0,1,0.24010068643656268,0.23892725168468587)"><svg viewBox="0 0 395.52 85.52190162183328" height="85.52190162183328" width="395.52"><g><svg viewBox="0 0 505.2390335918883 109.24606322399775" height="85.52190162183328" width="395.52"><g><svg viewBox="0 0 395.52 109.24606322399775" height="109.24606322399775" width="395.52"><g id="textblocktransform"><svg viewBox="0 0 395.52 109.24606322399775" height="109.24606322399775" width="395.52" id="textblock"><g><svg viewBox="0 0 395.52 109.24606322399775" height="109.24606322399775" width="395.52"><path d="M394.594 23.431C392.735 12.091 387.435 8.939 387.435 8.939 371.165-2.741 350.86-0.223 332.619 1.455 300.414 1.523 268.339 4.018 236.208 5.356 168.767 5.56 100.749 2.203 33.643 10.481 27.339 13.021-6.54 10.98 1.121 24.883 3.129 30.666 10.456 37.084 10.232 42.391 11.236 43.321 12.631 41.189 13.226 42.527 15.309 46.133 18.711 44.432 21.501 46.564 17.614 52.257 20.403 56.997 23.062 61.964 18.377 63.256 12.371 62.644 9.675 66.93 9.396 70.037 7.89 69.448 6.235 69.312 5.026 69.221 2.59 69.561 2.999 70.536 4.394 73.87-1.594 75.798 2.162 79.064-0.422 82.602 3.948 85.663 3.353 89.496 3.278 90.267 3.687 90.925 4.338 91.107 7.22 92.082 3.018 93.987 3.464 96.051 33.029 110.157 65.104 100.405 95.394 106.891 103.259 102.356 97.346 108.502 100.489 107.549 102.943 106.438 104.728 111.042 107.499 108.434 107.927 107.685 107.276 105.916 108.8 106.256 109.6 106.438 110.307 106.392 110.418 105.349 110.586 103.784 109.117 104.76 108.726 103.943 112.947 99.815 111.906 109.636 115.866 109.227 115.68 108.025 114.528 106.302 116.889 106.529 119.232 104.805 119.306 103.376 121.389 107.254 121.463 108.093 121.835 108.683 122.43 109.091 128.938 104.873 135.409 110.588 142.233 108.683 146.417 106.597 150.433 109.817 154.672 109.023 156.16 108.388 157.666 107.254 159.098 109.159 176.632 109.568 195.319 107.867 211.943 109.227 256.364 106.687 303.835 110.271 350.674 106.914 361.719 105.621 373.192 103.784 383.958 102.31 383.958 102.31 392.679 98.273 392.679 80.13S394.538 64.254 394.817 49.807C395.096 35.361 396.398 34.771 394.538 23.431Z" opacity="1" fill="#ffffff" data-fill-palette-color="tertiary"></path><g transform="matrix(1,0,0,1,55.76832,26.230666666666668)"><svg width="283.98335999999995" viewBox="2.5 -38.29999923706055 237.77999877929688 47.54999923706055" height="56.784729890664416" data-palette-color="#f44336"><path d="M19.8 0.7L19.8 0.7Q11.35 0.7 6.93-4 2.5-8.7 2.5-17.35L2.5-17.35Q2.5-21.65 3.85-25.03 5.2-28.4 7.55-30.73 9.9-33.05 13.15-34.25 16.4-35.45 20.2-35.45L20.2-35.45Q22.4-35.45 24.2-35.13 26-34.8 27.35-34.38 28.7-33.95 29.6-33.5 30.5-33.05 30.9-32.8L30.9-32.8 28.65-26.5Q27.05-27.35 24.93-27.95 22.8-28.55 20.1-28.55L20.1-28.55Q18.3-28.55 16.57-27.95 14.85-27.35 13.53-26.03 12.2-24.7 11.4-22.6 10.6-20.5 10.6-17.5L10.6-17.5Q10.6-15.1 11.13-13.03 11.65-10.95 12.83-9.45 14-7.95 15.9-7.08 17.8-6.2 20.5-6.2L20.5-6.2Q22.2-6.2 23.55-6.4 24.9-6.6 25.95-6.88 27-7.15 27.8-7.5 28.6-7.85 29.25-8.15L29.25-8.15 31.4-1.9Q29.75-0.9 26.75-0.1 23.75 0.7 19.8 0.7ZM43.35-26.3L43.35 0 35.9 0 35.9-26.3 43.35-26.3ZM44.05-33.9L44.05-33.9Q44.05-31.85 42.72-30.68 41.4-29.5 39.6-29.5L39.6-29.5Q37.8-29.5 36.47-30.68 35.15-31.85 35.15-33.9L35.15-33.9Q35.15-35.95 36.47-37.13 37.8-38.3 39.6-38.3L39.6-38.3Q41.4-38.3 42.72-37.13 44.05-35.95 44.05-33.9ZM50.1-10.75L50.1-32.85 57.55-34.05 57.55-26.3 66.5-26.3 66.5-20.1 57.55-20.1 57.55-10.85Q57.55-8.5 58.37-7.1 59.2-5.7 61.7-5.7L61.7-5.7Q62.9-5.7 64.17-5.93 65.45-6.15 66.5-6.55L66.5-6.55 67.55-0.75Q66.2-0.2 64.55 0.2 62.9 0.6 60.5 0.6L60.5 0.6Q57.45 0.6 55.45-0.23 53.45-1.05 52.25-2.53 51.05-4 50.57-6.1 50.1-8.2 50.1-10.75L50.1-10.75ZM88.69-26.3L96.39-26.3Q94.14-18.7 91.69-12.05 89.24-5.4 86.34 0.85L86.34 0.85Q85.29 3.1 84.24 4.67 83.19 6.25 81.94 7.28 80.69 8.3 79.12 8.78 77.54 9.25 75.44 9.25L75.44 9.25Q73.69 9.25 72.22 8.93 70.74 8.6 69.79 8.2L69.79 8.2 71.09 2.25Q72.24 2.65 73.14 2.8 74.04 2.95 75.04 2.95L75.04 2.95Q77.04 2.95 78.12 1.88 79.19 0.8 79.94-1.1L79.94-1.1Q77.39-6.1 74.84-12.33 72.29-18.55 70.04-26.3L70.04-26.3 77.94-26.3Q78.44-24.35 79.12-22.08 79.79-19.8 80.54-17.48 81.29-15.15 82.07-12.95 82.84-10.75 83.54-8.95L83.54-8.95Q84.19-10.75 84.89-12.95 85.59-15.15 86.27-17.48 86.94-19.8 87.57-22.08 88.19-24.35 88.69-26.3L88.69-26.3ZM102.64-34.65L110.09-34.65Q110.99-33 112.17-30.58 113.34-28.15 114.62-25.33 115.89-22.5 117.14-19.55 118.39-16.6 119.49-14L119.49-14Q120.59-16.6 121.84-19.55 123.09-22.5 124.37-25.33 125.64-28.15 126.82-30.58 127.99-33 128.89-34.65L128.89-34.65 135.99-34.65Q136.49-31.2 136.92-26.93 137.34-22.65 137.67-18.03 137.99-13.4 138.27-8.75 138.54-4.1 138.74 0L138.74 0 131.14 0Q130.99-5.05 130.74-11 130.49-16.95 129.99-23L129.99-23Q129.09-20.9 127.99-18.35 126.89-15.8 125.82-13.25 124.74-10.7 123.74-8.38 122.74-6.05 122.04-4.4L122.04-4.4 116.59-4.4Q115.89-6.05 114.89-8.38 113.89-10.7 112.82-13.25 111.74-15.8 110.64-18.35 109.54-20.9 108.64-23L108.64-23Q108.14-16.95 107.89-11 107.64-5.05 107.49 0L107.49 0 99.89 0Q100.09-4.1 100.37-8.75 100.64-13.4 100.97-18.03 101.29-22.65 101.72-26.93 102.14-31.2 102.64-34.65L102.64-34.65ZM169.84-13.2L169.84-13.2Q169.84-10.1 168.94-7.53 168.04-4.95 166.34-3.13 164.64-1.3 162.26-0.3 159.89 0.7 156.94 0.7L156.94 0.7Q154.04 0.7 151.66-0.3 149.29-1.3 147.59-3.13 145.89-4.95 144.94-7.53 143.99-10.1 143.99-13.2L143.99-13.2Q143.99-16.3 144.96-18.85 145.94-21.4 147.66-23.2 149.39-25 151.76-26 154.14-27 156.94-27L156.94-27Q159.79-27 162.16-26 164.54-25 166.24-23.2 167.94-21.4 168.89-18.85 169.84-16.3 169.84-13.2ZM162.24-13.2L162.24-13.2Q162.24-16.65 160.86-18.63 159.49-20.6 156.94-20.6L156.94-20.6Q154.39-20.6 152.99-18.63 151.59-16.65 151.59-13.2L151.59-13.2Q151.59-9.75 152.99-7.73 154.39-5.7 156.94-5.7L156.94-5.7Q159.49-5.7 160.86-7.73 162.24-9.75 162.24-13.2ZM188.24 0L182.04 0Q179.49-5 176.86-11.7 174.24-18.4 171.89-26.3L171.89-26.3 179.79-26.3Q180.29-24.35 180.96-22.08 181.64-19.8 182.36-17.48 183.09-15.15 183.81-12.95 184.54-10.75 185.24-8.95L185.24-8.95Q185.89-10.75 186.64-12.95 187.39-15.15 188.11-17.48 188.84-19.8 189.51-22.08 190.19-24.35 190.69-26.3L190.69-26.3 198.39-26.3Q196.04-18.4 193.41-11.7 190.79-5 188.24 0L188.24 0ZM209.83-26.3L209.83 0 202.38 0 202.38-26.3 209.83-26.3ZM210.53-33.9L210.53-33.9Q210.53-31.85 209.21-30.68 207.88-29.5 206.08-29.5L206.08-29.5Q204.28-29.5 202.96-30.68 201.63-31.85 201.63-33.9L201.63-33.9Q201.63-35.95 202.96-37.13 204.28-38.3 206.08-38.3L206.08-38.3Q207.88-38.3 209.21-37.13 210.53-35.95 210.53-33.9ZM215.58-12.95L215.58-12.95Q215.58-16.45 216.66-19.07 217.73-21.7 219.48-23.45 221.23-25.2 223.51-26.1 225.78-27 228.18-27L228.18-27Q233.78-27 237.03-23.58 240.28-20.15 240.28-13.5L240.28-13.5Q240.28-12.85 240.23-12.08 240.18-11.3 240.13-10.7L240.13-10.7 223.23-10.7Q223.48-8.4 225.38-7.05 227.28-5.7 230.48-5.7L230.48-5.7Q232.53-5.7 234.51-6.08 236.48-6.45 237.73-7L237.73-7 238.73-0.95Q238.13-0.65 237.13-0.35 236.13-0.05 234.91 0.18 233.68 0.4 232.28 0.55 230.88 0.7 229.48 0.7L229.48 0.7Q225.93 0.7 223.31-0.35 220.68-1.4 218.96-3.23 217.23-5.05 216.41-7.55 215.58-10.05 215.58-12.95ZM223.23-15.8L233.08-15.8Q233.03-16.75 232.76-17.65 232.48-18.55 231.91-19.25 231.33-19.95 230.46-20.4 229.58-20.85 228.28-20.85L228.28-20.85Q227.03-20.85 226.13-20.43 225.23-20 224.63-19.3 224.03-18.6 223.71-17.68 223.38-16.75 223.23-15.8L223.23-15.8Z" opacity="1" transform="matrix(1,0,0,1,0,0)" fill="#000000" class="wordmark-text-0" data-fill-palette-color="quaternary" id="text-0"></path></svg></g></svg></g></svg></g></svg></g><g transform="matrix(1,0,0,1,408.9255118936685,16.87851676810765)"><svg viewBox="0 0 96.31352169821986 75.48902968778245" height="75.48902968778245" width="96.31352169821986"><g><svg xmlns="http://www.w3.org/2000/svg" xmlns:xlink="http://www.w3.org/1999/xlink" version="1.1" x="0" y="0" viewBox="0 0 99.63200378417969 78.09000396728516" enable-background="new 0 0 99.633 78.09" xml:space="preserve" width="96.31352169821986" height="75.48902968778245" class="icon-icon-0" data-fill-palette-color="accent" id="icon-0"><g fill="#080808" data-fill-palette-color="accent"><path d="M96.941 0H2.693C1.205 0 0 1.206 0 2.693v56.548c0 1.489 1.205 2.694 2.693 2.694h43.085v10.771h-8.079c-1.488 0-2.693 1.204-2.693 2.692 0 1.485 1.205 2.692 2.693 2.692h21.542c1.488 0 2.692-1.207 2.692-2.692 0-1.488-1.204-2.692-2.692-2.692h-8.078V61.935h45.777c1.488 0 2.692-1.205 2.692-2.694V2.693C99.633 1.206 98.429 0 96.941 0zM94.248 56.548H5.386V5.385h88.861V56.548z" fill="#ffffff" data-fill-palette-color="accent"></path><path d="M43.264 41.276c0.063 0.177 0.155 0.33 0.25 0.488 0.063 0.101 0.084 0.217 0.16 0.311 0.029 0.037 0.074 0.048 0.105 0.082 0.19 0.212 0.413 0.376 0.66 0.521 0.084 0.05 0.153 0.123 0.24 0.163 0.336 0.15 0.705 0.244 1.099 0.244l0 0c0.002 0 0.002 0 0.002 0 0.327 0 0.65-0.073 0.963-0.194 0.116-0.045 0.213-0.116 0.321-0.176 0.131-0.074 0.273-0.121 0.396-0.219l10.771-8.619c0.092-0.074 0.14-0.177 0.219-0.26 0.06-0.064 0.145-0.09 0.202-0.161 0.052-0.066 0.065-0.146 0.11-0.214 0.103-0.154 0.179-0.311 0.247-0.48 0.063-0.159 0.118-0.314 0.149-0.48 0.032-0.17 0.04-0.333 0.043-0.507-0.003-0.173-0.011-0.336-0.043-0.507-0.031-0.166-0.086-0.321-0.149-0.48-0.068-0.169-0.145-0.326-0.247-0.479-0.045-0.069-0.059-0.149-0.11-0.215-0.066-0.08-0.158-0.119-0.229-0.19-0.07-0.072-0.109-0.166-0.191-0.23L47.46 21.054c-0.095-0.074-0.208-0.097-0.308-0.157-0.161-0.099-0.313-0.192-0.494-0.256-0.177-0.062-0.353-0.083-0.537-0.107-0.118-0.016-0.221-0.07-0.344-0.07-0.053 0-0.095 0.026-0.147 0.031-0.182 0.009-0.352 0.059-0.529 0.106-0.168 0.044-0.333 0.078-0.486 0.153-0.143 0.066-0.261 0.168-0.39 0.26-0.158 0.114-0.311 0.222-0.439 0.368-0.034 0.037-0.082 0.054-0.113 0.093-0.076 0.095-0.097 0.209-0.16 0.311-0.095 0.158-0.187 0.31-0.25 0.487-0.063 0.181-0.086 0.361-0.11 0.548-0.016 0.114-0.068 0.217-0.068 0.336v17.235c0 0.119 0.053 0.223 0.068 0.337C43.177 40.915 43.201 41.095 43.264 41.276zM48.47 28.761l3.769 3.014-3.769 3.014V28.761z" fill="#ffffff" data-fill-palette-color="accent"></path></g></svg></g></svg></g></svg></g><defs></defs></svg><rect width="395.52" height="85.52190162183328" fill="none" stroke="none" visibility="hidden"></rect></g></svg></g></svg>